<?xml version="1.0" encoding="UTF-8" standalone="no"?>
<!-- Created with Inkscape (http://www.inkscape.org/) -->

<svg
   xmlns:dc="http://purl.org/dc/elements/1.1/"
   xmlns:cc="http://creativecommons.org/ns#"
   xmlns:rdf="http://www.w3.org/1999/02/22-rdf-syntax-ns#"
   xmlns:svg="http://www.w3.org/2000/svg"
   xmlns="http://www.w3.org/2000/svg"
   xmlns:sodipodi="http://sodipodi.sourceforge.net/DTD/sodipodi-0.dtd"
   xmlns:inkscape="http://www.inkscape.org/namespaces/inkscape"
   width="256"
   height="256"
   id="svg2"
   version="1.1"
   inkscape:version="0.48.0 r9654"
   inkscape:export-filename="/home/lo/Desktop/icon128.png"
   inkscape:export-xdpi="90"
   inkscape:export-ydpi="90"
   sodipodi:docname="New document 1">
  <defs
     id="defs4">
    <filter
       inkscape:collect="always"
       id="filter4001">
      <feGaussianBlur
         inkscape:collect="always"
         stdDeviation="3.18"
         id="feGaussianBlur4003" />
    </filter>
  </defs>
  <sodipodi:namedview
     id="base"
     pagecolor="#ffffff"
     bordercolor="#666666"
     borderopacity="1.0"
     inkscape:pageopacity="0.0"
     inkscape:pageshadow="2"
     inkscape:zoom="1"
     inkscape:cx="137"
     inkscape:cy="121"
     inkscape:document-units="px"
     inkscape:current-layer="layer1"
     showgrid="false"
     inkscape:window-width="1093"
     inkscape:window-height="660"
     inkscape:window-x="4"
     inkscape:window-y="45"
     inkscape:window-maximized="0"
     inkscape:snap-bbox="true" />
  <metadata
     id="metadata7">
    <rdf:RDF>
      <cc:Work
         rdf:about="">
        <dc:format>image/svg+xml</dc:format>
        <dc:type
           rdf:resource="http://purl.org/dc/dcmitype/StillImage" />
        <dc:title></dc:title>
      </cc:Work>
    </rdf:RDF>
  </metadata>
  <g
     inkscape:label="Layer 1"
     inkscape:groupmode="layer"
     id="layer1"
     transform="translate(0,-796.36218)">
    <rect
       ry="2.3260391"
       rx="0.97928905"
       y="826.36218"
       x="30"
       height="210"
       width="214"
       id="rect3207"
       style="color:#000000;fill:#808080;fill-opacity:1;fill-rule:nonzero;stroke:#000000;stroke-width:0.99999994000000003;stroke-linecap:butt;stroke-linejoin:miter;stroke-miterlimit:4;stroke-opacity:1;stroke-dasharray:none;stroke-dashoffset:0;marker:none;visibility:visible;display:inline;overflow:visible;enable-background:accumulate;filter:url(#filter4001)" />
    <rect
       style="color:#000000;fill:#e6e6e6;fill-opacity:1;fill-rule:nonzero;stroke:#000000;stroke-width:0.99999994;stroke-linecap:butt;stroke-linejoin:miter;stroke-miterlimit:4;stroke-opacity:1;stroke-dasharray:none;stroke-dashoffset:0;marker:none;visibility:visible;display:inline;overflow:visible;enable-background:accumulate"
       id="rect3205"
       width="214"
       height="210"
       x="20"
       y="820.36218"
       rx="0.97928905"
       ry="2.3260391" />
    <g
       id="g3163"
       transform="translate(-6.0000006,-4.4768543)">
      <g
         style="fill:#ffff00"
         transform="translate(-30,2)"
         id="g3049">
        <g
           style="fill:#ffff00"
           id="g3038"
           transform="matrix(0.93534483,0,0,1,38.196121,-1)">
          <path
             inkscape:connector-curvature="0"
             id="path2991"
             d="m 19,822.36218 231,0"
             style="fill:#ffff00;stroke:#000000;stroke-width:1.03398478px;stroke-linecap:butt;stroke-linejoin:miter;stroke-opacity:1" />
          <path
             style="fill:#ffff00;stroke:#000000;stroke-width:1.03398478px;stroke-linecap:butt;stroke-linejoin:miter;stroke-opacity:1"
             d="m 19,848.73719 231,0"
             id="path2993"
             inkscape:connector-curvature="0" />
          <path
             inkscape:connector-curvature="0"
             id="path2995"
             d="m 19,875.11219 231,0"
             style="fill:#ffff00;stroke:#000000;stroke-width:1.03398478px;stroke-linecap:butt;stroke-linejoin:miter;stroke-opacity:1" />
          <path
             style="fill:#ffff00;stroke:#000000;stroke-width:1.03398478px;stroke-linecap:butt;stroke-linejoin:miter;stroke-opacity:1"
             d="m 19,901.48719 231,0"
             id="path2997"
             inkscape:connector-curvature="0" />
          <path
             inkscape:connector-curvature="0"
             id="path2999"
             d="m 19,927.86219 231,0"
             style="fill:#ffff00;stroke:#000000;stroke-width:1.03398478px;stroke-linecap:butt;stroke-linejoin:miter;stroke-opacity:1" />
          <path
             style="fill:#ffff00;stroke:#000000;stroke-width:1.03398478px;stroke-linecap:butt;stroke-linejoin:miter;stroke-opacity:1"
             d="m 19,954.23719 231,0"
             id="path3001"
             inkscape:connector-curvature="0" />
          <path
             inkscape:connector-curvature="0"
             id="path3003"
             d="m 19,980.6122 231,0"
             style="fill:#ffff00;stroke:#000000;stroke-width:1.03398478px;stroke-linecap:butt;stroke-linejoin:miter;stroke-opacity:1" />
          <path
             style="fill:#ffff00;stroke:#000000;stroke-width:1.03398478px;stroke-linecap:butt;stroke-linejoin:miter;stroke-opacity:1"
             d="m 19,1006.9872 231,0"
             id="path3005"
             inkscape:connector-curvature="0" />
          <path
             inkscape:connector-curvature="0"
             id="path3007"
             d="m 19,1033.3622 231,0"
             style="fill:#ffff00;stroke:#000000;stroke-width:1.03398478px;stroke-linecap:butt;stroke-linejoin:miter;stroke-opacity:1" />
        </g>
        <g
           style="fill:#ffff00"
           id="g3027"
           transform="matrix(0,0.9093894,-1.0188679,0,1108.869,804.03747)">
          <path
             style="fill:#ffff00;stroke:#000000;stroke-width:1.03888166px;stroke-linecap:butt;stroke-linejoin:miter;stroke-opacity:1"
             d="m 19,822.36218 231,0"
             id="path3009"
             inkscape:connector-curvature="0" />
          <path
             inkscape:connector-curvature="0"
             id="path3011"
             d="m 19,848.73719 231,0"
             style="fill:#ffff00;stroke:#000000;stroke-width:1.03888166px;stroke-linecap:butt;stroke-linejoin:miter;stroke-opacity:1" />
          <path
             style="fill:#ffff00;stroke:#000000;stroke-width:1.03888166px;stroke-linecap:butt;stroke-linejoin:miter;stroke-opacity:1"
             d="m 19,875.11219 231,0"
             id="path3013"
             inkscape:connector-curvature="0" />
          <path
             inkscape:connector-curvature="0"
             id="path3015"
             d="m 19,901.48719 231,0"
             style="fill:#ffff00;stroke:#000000;stroke-width:1.03888166px;stroke-linecap:butt;stroke-linejoin:miter;stroke-opacity:1" />
          <path
             style="fill:#ffff00;stroke:#000000;stroke-width:1.03888166px;stroke-linecap:butt;stroke-linejoin:miter;stroke-opacity:1"
             d="m 19,927.86219 231,0"
             id="path3017"
             inkscape:connector-curvature="0" />
          <path
             inkscape:connector-curvature="0"
             id="path3019"
             d="m 19,954.23719 231,0"
             style="fill:#ffff00;stroke:#000000;stroke-width:1.03888166px;stroke-linecap:butt;stroke-linejoin:miter;stroke-opacity:1" />
          <path
             style="fill:#ffff00;stroke:#000000;stroke-width:1.03888166px;stroke-linecap:butt;stroke-linejoin:miter;stroke-opacity:1"
             d="m 19,980.6122 231,0"
             id="path3021"
             inkscape:connector-curvature="0" />
          <path
             inkscape:connector-curvature="0"
             id="path3023"
             d="m 19,1006.9872 231,0"
             style="fill:#ffff00;stroke:#000000;stroke-width:1.03888166px;stroke-linecap:butt;stroke-linejoin:miter;stroke-opacity:1" />
          <path
             style="fill:#ffff00;stroke:#000000;stroke-width:1.03888166px;stroke-linecap:butt;stroke-linejoin:miter;stroke-opacity:1"
             d="m 19,1033.3622 231,0"
             id="path3025"
             inkscape:connector-curvature="0" />
        </g>
      </g>
      <path
         transform="translate(0,796.36218)"
         inkscape:connector-curvature="0"
         id="path3119"
         d="m 80.962578,66.656822 0,-12.5 12.5,0 12.500002,0 0,12.5 0,12.5 -12.500002,0 -12.5,0 0,-12.5 z"
         style="color:#000000;fill:#ffff00;fill-opacity:1;fill-rule:nonzero;stroke:#000000;stroke-width:0.99999994;stroke-linecap:butt;stroke-linejoin:miter;stroke-miterlimit:4;stroke-opacity:1;stroke-dasharray:none;stroke-dashoffset:0;marker:none;visibility:visible;display:inline;overflow:visible;enable-background:accumulate" />
      <path
         transform="translate(0,796.36218)"
         inkscape:connector-curvature="0"
         id="path3121"
         d="m 80.962578,119.15682 0,-12 12.5,0 12.500002,0 0,12 0,12 -12.500002,0 -12.5,0 0,-12 z"
         style="color:#000000;fill:#ffff00;fill-opacity:1;fill-rule:nonzero;stroke:#000000;stroke-width:0.99999994;stroke-linecap:butt;stroke-linejoin:miter;stroke-miterlimit:4;stroke-opacity:1;stroke-dasharray:none;stroke-dashoffset:0;marker:none;visibility:visible;display:inline;overflow:visible;enable-background:accumulate" />
      <path
         transform="translate(0,796.36218)"
         inkscape:connector-curvature="0"
         id="path3123"
         d="m 80.962578,145.65682 0,-12.5 12.5,0 12.500002,0 0,12.5 0,12.5 -12.500002,0 -12.5,0 0,-12.5 z"
         style="color:#000000;fill:#ffff00;fill-opacity:1;fill-rule:nonzero;stroke:#000000;stroke-width:0.99999994;stroke-linecap:butt;stroke-linejoin:miter;stroke-miterlimit:4;stroke-opacity:1;stroke-dasharray:none;stroke-dashoffset:0;marker:none;visibility:visible;display:inline;overflow:visible;enable-background:accumulate" />
      <path
         transform="translate(0,796.36218)"
         inkscape:connector-curvature="0"
         id="path3125"
         d="m 80.962578,172.15682 0,-12 12.5,0 12.500002,0 0,12 0,12 -12.500002,0 -12.5,0 0,-12 z"
         style="color:#000000;fill:#ffff00;fill-opacity:1;fill-rule:nonzero;stroke:#000000;stroke-width:0.99999994;stroke-linecap:butt;stroke-linejoin:miter;stroke-miterlimit:4;stroke-opacity:1;stroke-dasharray:none;stroke-dashoffset:0;marker:none;visibility:visible;display:inline;overflow:visible;enable-background:accumulate" />
      <path
         transform="translate(0,796.36218)"
         inkscape:connector-curvature="0"
         id="path3127"
         d="m 53.962578,198.15682 0,-12 12.5,0 12.5,0 0,12 0,12 -12.5,0 -12.5,0 0,-12 z"
         style="color:#000000;fill:#ffff00;fill-opacity:1;fill-rule:nonzero;stroke:#000000;stroke-width:0.99999994;stroke-linecap:butt;stroke-linejoin:miter;stroke-miterlimit:4;stroke-opacity:1;stroke-dasharray:none;stroke-dashoffset:0;marker:none;visibility:visible;display:inline;overflow:visible;enable-background:accumulate" />
      <path
         transform="translate(0,796.36218)"
         inkscape:connector-curvature="0"
         id="path3129"
         d="m 134.96258,198.15682 0,-12 12,0 12,0 0,12 0,12 -12,0 -12,0 0,-12 z"
         style="color:#000000;fill:#ffff00;fill-opacity:1;fill-rule:nonzero;stroke:#000000;stroke-width:0.99999994;stroke-linecap:butt;stroke-linejoin:miter;stroke-miterlimit:4;stroke-opacity:1;stroke-dasharray:none;stroke-dashoffset:0;marker:none;visibility:visible;display:inline;overflow:visible;enable-background:accumulate" />
      <path
         transform="translate(0,796.36218)"
         inkscape:connector-curvature="0"
         id="path3131"
         d="m 134.96258,172.15682 0,-12 12,0 12,0 0,12 0,12 -12,0 -12,0 0,-12 z"
         style="color:#000000;fill:#ffff00;fill-opacity:1;fill-rule:nonzero;stroke:#000000;stroke-width:0.99999994;stroke-linecap:butt;stroke-linejoin:miter;stroke-miterlimit:4;stroke-opacity:1;stroke-dasharray:none;stroke-dashoffset:0;marker:none;visibility:visible;display:inline;overflow:visible;enable-background:accumulate" />
      <path
         transform="translate(0,796.36218)"
         inkscape:connector-curvature="0"
         id="path3133"
         d="m 134.96258,145.65682 0,-12.5 12,0 12,0 0,12.5 0,12.5 -12,0 -12,0 0,-12.5 z"
         style="color:#000000;fill:#ffff00;fill-opacity:1;fill-rule:nonzero;stroke:#000000;stroke-width:0.99999994;stroke-linecap:butt;stroke-linejoin:miter;stroke-miterlimit:4;stroke-opacity:1;stroke-dasharray:none;stroke-dashoffset:0;marker:none;visibility:visible;display:inline;overflow:visible;enable-background:accumulate" />
      <path
         transform="translate(0,796.36218)"
         inkscape:connector-curvature="0"
         id="path3135"
         d="m 134.96258,119.15682 0,-12 12,0 12,0 0,12 0,12 -12,0 -12,0 0,-12 z"
         style="color:#000000;fill:#ffff00;fill-opacity:1;fill-rule:nonzero;stroke:#000000;stroke-width:0.99999994;stroke-linecap:butt;stroke-linejoin:miter;stroke-miterlimit:4;stroke-opacity:1;stroke-dasharray:none;stroke-dashoffset:0;marker:none;visibility:visible;display:inline;overflow:visible;enable-background:accumulate" />
      <path
         transform="translate(0,796.36218)"
         inkscape:connector-curvature="0"
         id="path3137"
         d="m 134.96258,93.156822 0,-12 12,0 12,0 0,12 0,11.999998 -12,0 -12,0 0,-11.999998 z"
         style="color:#000000;fill:#ffff00;fill-opacity:1;fill-rule:nonzero;stroke:#000000;stroke-width:0.99999994;stroke-linecap:butt;stroke-linejoin:miter;stroke-miterlimit:4;stroke-opacity:1;stroke-dasharray:none;stroke-dashoffset:0;marker:none;visibility:visible;display:inline;overflow:visible;enable-background:accumulate" />
      <path
         transform="translate(0,796.36218)"
         inkscape:connector-curvature="0"
         id="path3139"
         d="m 134.96258,66.656822 0,-12.5 12,0 12,0 0,12.5 0,12.5 -12,0 -12,0 0,-12.5 z"
         style="color:#000000;fill:#ffff00;fill-opacity:1;fill-rule:nonzero;stroke:#000000;stroke-width:0.99999994;stroke-linecap:butt;stroke-linejoin:miter;stroke-miterlimit:4;stroke-opacity:1;stroke-dasharray:none;stroke-dashoffset:0;marker:none;visibility:visible;display:inline;overflow:visible;enable-background:accumulate" />
      <path
         transform="translate(0,796.36218)"
         inkscape:connector-curvature="0"
         id="path3141"
         d="m 160.96258,93.156822 0,-12 12.5,0 12.5,0 0,12 0,11.999998 -12.5,0 -12.5,0 0,-11.999998 z"
         style="color:#000000;fill:#ffff00;fill-opacity:1;fill-rule:nonzero;stroke:#000000;stroke-width:0.99999994;stroke-linecap:butt;stroke-linejoin:miter;stroke-miterlimit:4;stroke-opacity:1;stroke-dasharray:none;stroke-dashoffset:0;marker:none;visibility:visible;display:inline;overflow:visible;enable-background:accumulate" />
      <path
         transform="translate(0,796.36218)"
         inkscape:connector-curvature="0"
         id="path3145"
         d="m 187.96258,66.656822 0,-12.5 12.5,0 12.5,0 0,12.5 0,12.5 -12.5,0 -12.5,0 0,-12.5 z"
         style="color:#000000;fill:#ffff00;fill-opacity:1;fill-rule:nonzero;stroke:#000000;stroke-width:0.99999994;stroke-linecap:butt;stroke-linejoin:miter;stroke-miterlimit:4;stroke-opacity:1;stroke-dasharray:none;stroke-dashoffset:0;marker:none;visibility:visible;display:inline;overflow:visible;enable-background:accumulate" />
      <path
         transform="translate(0,796.36218)"
         inkscape:connector-curvature="0"
         id="path3147"
         d="m 187.96258,93.156822 0,-12 12.5,0 12.5,0 0,12 0,11.999998 -12.5,0 -12.5,0 0,-11.999998 z"
         style="color:#000000;fill:#ffff00;fill-opacity:1;fill-rule:nonzero;stroke:#000000;stroke-width:0.99999994;stroke-linecap:butt;stroke-linejoin:miter;stroke-miterlimit:4;stroke-opacity:1;stroke-dasharray:none;stroke-dashoffset:0;marker:none;visibility:visible;display:inline;overflow:visible;enable-background:accumulate" />
      <path
         transform="translate(0,796.36218)"
         inkscape:connector-curvature="0"
         id="path3149"
         d="m 187.96258,119.15682 0,-12 12.5,0 12.5,0 0,12 0,12 -12.5,0 -12.5,0 0,-12 z"
         style="color:#000000;fill:#ffff00;fill-opacity:1;fill-rule:nonzero;stroke:#000000;stroke-width:0.99999994;stroke-linecap:butt;stroke-linejoin:miter;stroke-miterlimit:4;stroke-opacity:1;stroke-dasharray:none;stroke-dashoffset:0;marker:none;visibility:visible;display:inline;overflow:visible;enable-background:accumulate" />
      <path
         transform="translate(0,796.36218)"
         inkscape:connector-curvature="0"
         id="path3151"
         d="m 187.96258,145.65682 0,-12.5 12.5,0 12.5,0 0,12.5 0,12.5 -12.5,0 -12.5,0 0,-12.5 z"
         style="color:#000000;fill:#ffff00;fill-opacity:1;fill-rule:nonzero;stroke:#000000;stroke-width:0.99999994;stroke-linecap:butt;stroke-linejoin:miter;stroke-miterlimit:4;stroke-opacity:1;stroke-dasharray:none;stroke-dashoffset:0;marker:none;visibility:visible;display:inline;overflow:visible;enable-background:accumulate" />
      <path
         transform="translate(0,796.36218)"
         inkscape:connector-curvature="0"
         id="path3153"
         d="m 187.96258,172.15682 0,-12 12.5,0 12.5,0 0,12 0,12 -12.5,0 -12.5,0 0,-12 z"
         style="color:#000000;fill:#ffff00;fill-opacity:1;fill-rule:nonzero;stroke:#000000;stroke-width:0.99999994;stroke-linecap:butt;stroke-linejoin:miter;stroke-miterlimit:4;stroke-opacity:1;stroke-dasharray:none;stroke-dashoffset:0;marker:none;visibility:visible;display:inline;overflow:visible;enable-background:accumulate" />
      <path
         transform="translate(0,796.36218)"
         inkscape:connector-curvature="0"
         id="path3155"
         d="m 187.96258,198.15682 0,-12 12.5,0 12.5,0 0,12 0,12 -12.5,0 -12.5,0 0,-12 z"
         style="color:#000000;fill:#ffff00;fill-opacity:1;fill-rule:nonzero;stroke:#000000;stroke-width:0.99999994;stroke-linecap:butt;stroke-linejoin:miter;stroke-miterlimit:4;stroke-opacity:1;stroke-dasharray:none;stroke-dashoffset:0;marker:none;visibility:visible;display:inline;overflow:visible;enable-background:accumulate" />
      <path
         transform="translate(0,796.36218)"
         inkscape:connector-curvature="0"
         id="path3157"
         d="m 160.96258,119.15682 0,-12 12.5,0 12.5,0 0,12 0,12 -12.5,0 -12.5,0 0,-12 z"
         style="color:#000000;fill:#ffff00;fill-opacity:1;fill-rule:nonzero;stroke:#000000;stroke-width:0.99999994;stroke-linecap:butt;stroke-linejoin:miter;stroke-miterlimit:4;stroke-opacity:1;stroke-dasharray:none;stroke-dashoffset:0;marker:none;visibility:visible;display:inline;overflow:visible;enable-background:accumulate" />
    </g>
    <path
       style="color:#000000;fill:#00ffff;fill-opacity:1;fill-rule:nonzero;stroke:#000000;stroke-width:0.99999994;stroke-linecap:butt;stroke-linejoin:miter;stroke-miterlimit:4;stroke-opacity:1;stroke-dasharray:none;stroke-dashoffset:0;marker:none;visibility:visible;display:inline;overflow:visible;enable-background:accumulate"
       d="m 102,115 0,-12 12.5,0 12.5,0 0,12 0,12 -12.5,0 -12.5,0 0,-12 z"
       id="path4005"
       inkscape:connector-curvature="0"
       transform="translate(0,796.36218)" />
  </g>
</svg>
